<svg width="116" height="116" xmlns="http://www.w3.org/2000/svg" xmlns:xlink="http://www.w3.org/1999/xlink" xml:space="preserve" overflow="hidden"><defs><clipPath id="clip0"><rect x="988" y="23" width="116" height="116"/></clipPath></defs><g clip-path="url(#clip0)" transform="translate(-988 -23)"><path d="M1009.87 90.8407C1008.44 88.0932 1007.33 85.1875 1006.57 82.183 1002.67 82.6589 998.821 83.5112 995.083 84.7277 995.083 84.7277 1003.06 103.57 1018.71 110.459 1024.36 112.819 1030.47 113.892 1036.59 113.601 1030.28 110.927 1016.8 103.951 1009.87 90.8407Z" stroke="#181717" stroke-width="1.20833" fill="#0D0D0D"/><path d="M1085.18 82.1721C1084.42 85.1807 1083.31 88.0901 1081.88 90.8407 1074.96 103.949 1061.48 110.924 1055.17 113.598 1061.31 113.9 1067.44 112.827 1073.12 110.457 1088.78 103.57 1096.75 84.7277 1096.75 84.7277 1092.99 83.5021 1089.11 82.6461 1085.18 82.1721Z" stroke="#181717" stroke-width="1.20833" fill="#0D0D0D"/><path d="M1026.92 80.3656C1026.99 74.9778 1028.07 69.6507 1030.09 64.6573 1024.6 59.9826 1018.33 56.2977 1011.58 53.7666 1011.58 53.7666 1006.12 73.4866 1014.11 88.6052 1019.67 99.1298 1030.18 105.347 1036.43 108.278 1032.08 101.85 1026.92 91.8098 1026.92 80.3656Z" stroke="#181717" stroke-width="1.20833" fill="#0D0D0D"/><path d="M1080.18 53.763C1073.33 56.3266 1067 60.0744 1061.45 64.8349 1063.44 69.7768 1064.49 75.0417 1064.56 80.3656 1064.56 91.9233 1059.29 102.048 1054.92 108.468 1061.11 105.619 1071.97 99.357 1077.65 88.6052 1085.63 73.4866 1080.18 53.763 1080.18 53.763Z" stroke="#181717" stroke-width="1.20833" fill="#0D0D0D"/><path d="M1059.78 80.3668C1059.78 97.9904 1045.74 112.357 1045.74 112.357 1045.74 112.357 1031.71 97.9904 1031.71 80.3668 1031.71 63.2689 1045.74 48.375 1045.74 48.375 1045.74 48.375 1059.78 63.2689 1059.78 80.3668Z" stroke="#181717" stroke-width="1.20833" fill="#0D0D0D"/></g></svg>